<?xml version="1.0" standalone="no"?>
<!DOCTYPE svg PUBLIC "-//W3C//DTD SVG 20010904//EN"
 "http://www.w3.org/TR/2001/REC-SVG-20010904/DTD/svg10.dtd">
<svg version="1.0" xmlns="http://www.w3.org/2000/svg"
 width="847.000000pt" height="847.000000pt" viewBox="0 0 847.000000 847.000000"
 preserveAspectRatio="xMidYMid meet">

<g transform="translate(0.000000,847.000000) scale(0.100000,-0.100000)"
fill="#000000" stroke="none">
<path d="M610 7190 l0 -710 145 0 145 0 2 -2132 3 -2133 3395 0 3395 0 3 2345
c2 1956 0 2358 -12 2425 -27 160 -106 308 -220 412 -82 75 -155 118 -264 157
l-87 31 -2542 3 -2543 2 0 155 0 155 -710 0 -710 0 0 -710z m300 445 l0 -216
83 3 82 3 3 213 2 212 110 0 110 0 0 -320 0 -320 -305 0 -305 0 0 320 0 320
110 0 110 0 0 -215z m1030 110 l0 -105 -190 0 -190 0 0 -45 0 -45 150 0 151 0
-3 -107 -3 -108 -147 -3 -147 -3 -3 -62 -3 -62 -107 -3 -108 -3 0 326 0 325
300 0 300 0 0 -105z m2909 -416 c-23 -34 -73 -94 -111 -134 l-69 -73 10 -45
c6 -24 15 -98 22 -163 12 -129 1 -295 -27 -402 -36 -137 -118 -252 -212 -295
-68 -32 -226 -32 -294 0 -63 29 -132 94 -161 153 l-24 48 -69 -70 c-62 -63
-181 -158 -198 -158 -16 0 85 133 164 215 l86 90 -8 50 c-5 28 -5 100 -2 160
8 123 12 117 39 -49 8 -55 18 -102 20 -105 3 -2 23 13 45 34 37 36 40 44 41
95 1 30 5 69 8 85 7 28 8 26 20 -28 9 -40 16 -55 24 -49 7 4 84 80 171 169
l160 163 -17 54 c-38 121 -161 154 -240 66 -37 -40 -59 -99 -93 -255 -16 -70
-19 -76 -25 -50 -21 94 0 242 45 314 30 46 53 67 99 86 102 42 213 -6 262
-116 10 -21 21 -39 24 -38 3 0 17 13 30 30 29 37 24 60 -23 115 -75 88 -228
115 -339 60 -31 -15 -70 -43 -88 -64 -43 -49 -94 -162 -120 -264 -37 -151 -37
-150 -38 -48 -2 207 83 372 226 437 45 21 72 26 137 26 45 0 99 -5 122 -11 62
-18 130 -69 166 -123 l32 -50 60 60 c62 60 164 141 179 141 4 0 -11 -28 -34
-61z m-3551 -401 l2 -238 -195 0 -195 0 0 -85 0 -85 -110 0 -110 0 0 318 c0
175 3 322 7 325 4 4 140 6 302 5 l296 -3 3 -237z m642 152 l0 -90 -190 0 -190
0 0 -40 0 -40 190 0 190 0 0 -195 0 -195 -300 0 -301 0 3 88 3 87 213 3 c179
2 212 5 212 17 0 13 -32 15 -215 15 l-215 0 0 220 0 220 300 0 300 0 0 -90z
m2020 -1031 l5 -34 370 -1 c488 -1 791 -25 1165 -95 517 -96 955 -297 1029
-472 15 -35 18 -69 17 -207 -2 -161 -2 -167 -29 -212 -31 -53 -99 -116 -174
-161 -29 -18 -53 -35 -53 -39 0 -4 22 -19 50 -33 66 -33 174 -136 193 -183 11
-28 14 -78 13 -203 -2 -159 -3 -167 -28 -210 -31 -53 -93 -112 -172 -165 -31
-20 -56 -38 -56 -39 0 -2 31 -21 68 -43 75 -45 154 -122 175 -173 10 -25 13
-77 12 -199 -1 -146 -4 -170 -22 -205 -129 -248 -740 -448 -1568 -515 -77 -6
-164 -13 -192 -16 l-53 -5 0 -113 c0 -126 -7 -176 -24 -176 -8 0 -10 42 -8
145 3 160 1 165 -53 119 -21 -17 -23 -22 -8 -15 12 6 26 11 32 11 13 0 15
-208 2 -228 -9 -15 -21 63 -21 141 0 47 -7 56 -27 36 -6 -6 -16 -8 -22 -5 -17
11 -13 57 7 72 15 12 10 13 -35 14 l-52 0 -3 -72 c-3 -64 -5 -73 -23 -76 -12
-2 -16 0 -9 5 7 5 9 32 6 72 -5 74 -22 64 -22 -14 0 -36 -3 -46 -10 -35 -5 8
-10 36 -10 63 l0 47 -112 0 c-62 0 -143 3 -180 7 l-68 6 0 -44 c0 -24 -3 -68
-6 -96 -6 -46 -10 -53 -28 -52 -12 0 -15 3 -8 6 15 6 17 183 2 183 -6 0 -10
-28 -11 -62 0 -35 -4 -72 -8 -83 -7 -16 -9 -14 -14 14 -4 19 -7 55 -7 82 l0
49 -55 0 -55 0 0 -165 c0 -164 0 -165 -22 -165 -16 0 -19 3 -10 8 9 7 12 44
10 155 l-3 146 -30 -27 c-17 -15 -26 -24 -21 -20 4 3 15 4 22 1 16 -6 19 -113
7 -199 -6 -42 -8 -45 -14 -24 -4 14 -7 63 -8 109 l-1 83 -24 -15 c-17 -12 -26
-13 -35 -4 -22 22 -10 46 42 83 l52 38 -190 17 c-939 86 -1543 305 -1605 582
-7 34 -6 59 6 103 12 46 12 64 3 86 -19 46 -13 130 11 178 27 54 103 129 169
170 28 18 51 33 51 34 0 2 -29 22 -64 45 -71 46 -135 112 -161 168 -21 45 -24
127 -6 171 11 26 11 38 1 62 -7 17 -12 55 -12 84 1 93 55 172 174 256 l68 48
-37 23 c-166 103 -242 241 -195 355 11 25 10 40 -2 88 -37 140 51 264 265 375
287 151 848 278 1354 307 140 8 171 16 220 59 22 19 45 33 50 31 6 -1 12 -18
15 -37z m318 -3295 c39 -27 52 -67 52 -160 0 -75 -4 -93 -25 -129 -25 -43 -46
-55 -100 -55 -62 0 -105 56 -105 137 1 54 13 43 25 -22 9 -54 39 -85 82 -85
54 0 71 15 89 77 28 97 6 203 -46 221 -59 21 -112 -16 -126 -87 -9 -42 -24
-49 -24 -11 0 37 33 105 57 119 27 16 96 13 121 -5z m-21 -38 c27 -23 28 -28
28 -118 0 -115 -16 -148 -70 -148 -26 0 -39 6 -52 26 -20 31 -29 124 -15 150
8 14 11 6 17 -41 11 -104 40 -140 77 -96 14 18 18 40 18 100 0 116 -34 152
-84 89 -20 -25 -26 -29 -26 -15 0 28 19 57 43 67 32 13 33 12 64 -14z"/>
<path d="M1128 7598 l-3 -213 -132 -3 -133 -3 0 211 0 210 -60 0 -60 0 0 -275
0 -275 255 0 255 0 0 280 0 280 -60 0 -60 0 -2 -212z"/>
<path d="M1380 7530 l0 -280 65 0 65 0 0 65 0 65 150 0 150 0 0 65 0 65 -150
0 -150 0 0 85 0 85 195 0 195 0 0 65 0 65 -260 0 -260 0 0 -280z"/>
<path d="M4581 7036 l-33 -35 6 -113 c13 -218 -18 -412 -81 -496 -55 -73 -182
-97 -255 -47 -42 28 -81 89 -98 153 -6 23 -14 42 -17 42 -14 0 -63 -65 -63
-84 0 -36 58 -125 99 -152 114 -75 271 -69 362 13 51 47 103 155 125 262 13
67 15 120 12 265 -3 100 -9 191 -14 204 -10 22 -10 22 -43 -12z"/>
<path d="M4452 6902 c-19 -20 -92 -96 -164 -168 l-131 -132 13 -53 c27 -114
73 -169 142 -169 76 0 127 45 154 135 18 64 32 265 25 357 l-6 67 -33 -37z"/>
<path d="M740 6840 l0 -280 65 0 65 0 0 90 0 90 190 0 190 0 0 190 0 190 -255
0 -255 0 0 -280z m388 88 l3 -108 -136 0 -135 0 0 110 0 111 133 -3 132 -3 3
-107z"/>
<path d="M910 6925 l0 -66 83 3 82 3 3 63 3 62 -86 0 -85 0 0 -65z"/>
<path d="M1380 6950 l0 -170 215 0 215 0 0 -65 0 -65 -212 -2 -213 -3 -3 -42
-3 -43 260 0 261 0 0 150 0 150 -195 0 -195 0 0 90 0 90 195 0 195 0 0 40 0
40 -260 0 -260 0 0 -170z"/>
<path d="M3900 6025 c-10 -13 -9 -15 9 -15 12 0 21 6 21 15 0 8 -4 15 -9 15
-5 0 -14 -7 -21 -15z"/>
<path d="M4003 5953 l-42 -4 -3 -102 c-3 -93 -5 -102 -23 -105 -11 -2 -16 0
-10 5 13 10 7 203 -6 203 -5 0 -9 -40 -9 -90 0 -53 -4 -90 -10 -90 -6 0 -10
37 -10 90 l0 89 -97 -5 c-669 -36 -1314 -192 -1559 -377 -92 -70 -142 -154
-128 -216 105 -454 1908 -716 3340 -486 203 33 526 111 599 145 11 5 64 26
117 48 183 74 319 180 346 270 16 53 15 59 -12 117 -75 159 -296 270 -731 368
-280 63 -717 120 -1005 132 -80 3 -169 8 -197 10 l-53 5 0 -109 0 -109 78 -7
c148 -12 378 -46 473 -70 183 -46 388 -143 453 -215 139 -155 -136 -337 -609
-404 -297 -42 -710 -54 -965 -28 -522 54 -824 163 -889 321 -26 62 18 139 118
202 134 86 443 161 776 189 66 5 132 10 148 10 24 0 27 4 27 31 0 65 51 114
116 112 61 -2 90 -33 108 -115 6 -25 11 -28 46 -28 l40 0 0 72 c0 56 -3 69
-12 60 -23 -23 -48 -14 -48 18 0 23 7 33 30 45 17 9 30 18 30 20 0 6 -363 3
-427 -2z"/>
<path d="M4440 5929 c-19 -17 -27 -26 -18 -19 30 21 38 2 38 -86 0 -49 4 -84
10 -84 6 0 10 43 10 110 0 61 -1 110 -3 110 -1 0 -18 -14 -37 -31z"/>
<path d="M4198 5853 c-18 -5 -51 -52 -63 -90 -5 -17 -2 -23 9 -23 11 0 16 9
16 30 0 36 39 80 70 80 20 0 60 -32 60 -49 0 -18 21 -64 26 -58 3 3 0 23 -6
46 -15 58 -53 80 -112 64z"/>
<path d="M4202 5807 c-6 -6 -13 -24 -17 -40 -7 -27 -6 -27 39 -27 40 0 46 3
46 21 0 49 -42 78 -68 46z"/>
<path d="M4070 5595 c0 -69 3 -85 15 -85 12 0 15 14 15 63 0 34 3 72 6 85 5
18 2 22 -15 22 -20 0 -21 -5 -21 -85z"/>
<path d="M4241 5633 c1 -43 2 -45 9 -18 11 44 11 65 0 65 -5 0 -9 -21 -9 -47z"/>
<path d="M4392 5660 c0 -14 2 -19 5 -12 2 6 2 18 0 25 -3 6 -5 1 -5 -13z"/>
<path d="M4450 5608 c0 -39 2 -69 4 -67 9 9 14 139 5 139 -5 0 -9 -32 -9 -72z"/>
<path d="M4520 5628 c0 -62 5 -60 13 5 4 28 3 47 -3 47 -6 0 -10 -23 -10 -52z"/>
<path d="M3769 5650 c-70 -9 -134 -20 -143 -23 -13 -5 -16 -22 -16 -88 0 -80
0 -81 24 -75 29 7 217 32 309 41 l67 7 0 41 c0 23 3 59 6 80 l7 37 -64 -1
c-35 -1 -121 -9 -190 -19z"/>
<path d="M4591 5613 c1 -65 5 -61 12 10 2 26 1 47 -4 47 -5 0 -9 -26 -8 -57z"/>
<path d="M4661 5583 c1 -100 6 -93 11 15 2 39 0 72 -4 72 -4 0 -7 -39 -7 -87z"/>
<path d="M4731 5578 c2 -86 6 -76 11 25 2 31 0 57 -4 57 -5 0 -7 -37 -7 -82z"/>
<path d="M4803 5570 c0 -47 2 -66 4 -42 2 23 2 61 0 85 -2 23 -4 4 -4 -43z"/>
<path d="M4872 5610 c0 -19 2 -27 5 -17 2 9 2 25 0 35 -3 9 -5 1 -5 -18z"/>
<path d="M4942 5615 c0 -16 2 -22 5 -12 2 9 2 23 0 30 -3 6 -5 -1 -5 -18z"/>
<path d="M5011 5538 c2 -86 6 -76 11 25 2 31 0 57 -4 57 -5 0 -7 -37 -7 -82z"/>
<path d="M3503 5603 c-22 -4 -23 -9 -23 -87 l0 -83 26 5 c31 6 31 7 37 100 3
49 1 72 -7 71 -6 -1 -21 -4 -33 -6z"/>
<path d="M5080 5525 c0 -50 4 -85 10 -85 6 0 10 30 10 69 0 38 3 76 6 85 4 11
1 16 -10 16 -13 0 -16 -14 -16 -85z"/>
<path d="M4171 5574 c0 -11 3 -14 6 -6 3 7 2 16 -1 19 -3 4 -6 -2 -5 -13z"/>
<path d="M5160 5505 c0 -69 3 -85 15 -85 12 0 15 14 15 63 0 34 3 72 6 85 5
18 2 22 -15 22 -20 0 -21 -5 -21 -85z"/>
<path d="M3407 5573 c-4 -3 -7 -42 -7 -87 0 -102 17 -89 22 17 3 73 0 86 -15
70z"/>
<path d="M4312 5545 c0 -16 2 -22 5 -12 2 9 2 23 0 30 -3 6 -5 -1 -5 -18z"/>
<path d="M5250 5473 l0 -78 59 -22 c32 -13 61 -23 63 -23 3 0 8 30 11 68 2 37
8 75 12 85 6 13 2 17 -18 17 -13 0 -44 7 -67 15 -23 8 -46 15 -51 15 -5 0 -9
-35 -9 -77z"/>
<path d="M4070 5453 c-158 -7 -384 -36 -532 -68 -138 -31 -338 -104 -338 -125
0 -11 125 -65 208 -90 70 -21 72 -21 259 -6 104 9 194 16 201 16 7 0 12 12 13
28 l1 27 10 -27 c11 -33 28 -37 28 -8 0 11 5 20 10 20 6 0 10 -9 10 -21 0 -18
5 -20 48 -17 l47 3 3 51 c3 57 -10 102 -33 110 -23 9 -54 -23 -61 -63 -4 -22
-10 -31 -16 -25 -16 16 3 81 29 102 18 14 21 20 10 20 -22 0 -55 -45 -69 -94
-10 -35 -12 -38 -16 -16 -6 38 16 97 45 119 17 14 40 21 68 21 78 0 115 -53
115 -167 l0 -53 60 0 c58 0 60 1 60 26 0 25 -1 26 -22 12 -54 -35 -69 26 -15
63 17 12 44 33 59 47 14 13 31 21 37 18 6 -4 11 -40 11 -85 l0 -78 203 -6
c111 -4 299 -15 417 -24 l215 -16 75 22 c41 13 110 39 154 59 76 35 78 36 58
52 -65 53 -414 131 -694 156 l-78 7 0 -54 c0 -114 -44 -179 -120 -179 -73 0
-117 61 -108 151 3 32 4 30 17 -23 8 -32 23 -67 33 -78 26 -28 90 -27 117 1
31 33 55 169 32 183 -5 3 -11 -25 -13 -62 -5 -90 -23 -126 -66 -130 -18 -2
-40 2 -47 8 -21 18 -38 78 -30 108 7 25 8 24 20 -21 31 -119 95 -89 95 44 l0
60 -47 -3 c-41 -3 -48 -6 -53 -28 -6 -24 -7 -24 -14 8 -9 39 -19 41 -33 5
l-11 -28 -1 28 -1 27 -142 -2 c-79 -1 -172 -3 -208 -5z"/>
<path d="M5440 5387 c0 -65 3 -78 19 -87 16 -8 23 -5 40 24 29 46 27 56 -19
101 l-40 39 0 -77z"/>
<path d="M4017 5370 c30 -12 44 -42 53 -119 l9 -66 -2 77 c-2 83 -21 119 -61
117 -21 0 -21 0 1 -9z"/>
<path d="M4236 5290 c-22 -17 -35 -30 -28 -30 6 0 13 4 17 10 13 22 35 -3 35
-41 0 -21 5 -39 10 -39 6 0 10 28 10 65 0 36 -1 65 -2 65 -2 0 -21 -14 -42
-30z"/>
<path d="M2085 5189 c-4 -31 -1 -56 10 -83 22 -51 122 -147 205 -196 63 -37
236 -111 293 -125 l27 -7 0 81 c0 69 -3 82 -17 87 -182 58 -381 161 -465 242
l-46 45 -7 -44z"/>
<path d="M4050 5122 c0 -6 -12 -18 -27 -26 -17 -9 -22 -15 -12 -16 19 0 55 37
46 47 -4 3 -7 1 -7 -5z"/>
<path d="M4078 5101 c-15 -28 -15 -29 5 -35 12 -3 50 -6 85 -6 l62 0 0 35 0
35 -67 0 c-65 0 -69 -2 -85 -29z"/>
<path d="M4260 5111 c0 -11 -3 -26 -6 -35 -4 -11 -1 -16 10 -16 12 0 16 10 16
35 0 19 -4 35 -10 35 -5 0 -10 -9 -10 -19z"/>
<path d="M4300 5095 c0 -34 1 -35 38 -35 30 0 48 8 78 35 l39 34 -77 1 -78 0
0 -35z"/>
<path d="M4500 5097 c0 -35 1 -35 38 -31 20 2 96 9 167 15 220 18 228 25 40
33 -93 4 -187 9 -207 12 -38 6 -38 5 -38 -29z"/>
<path d="M3775 5111 l-70 -6 93 -13 c51 -8 95 -12 98 -9 11 11 -10 37 -30 35
-11 -1 -52 -4 -91 -7z"/>
<path d="M3920 5110 c0 -12 34 -30 57 -29 15 0 15 2 -3 9 -12 5 -25 13 -29 19
-8 14 -25 14 -25 1z"/>
<path d="M4445 5080 c-18 -19 -17 -20 3 -20 15 0 22 6 22 20 0 11 -2 20 -3 20
-2 0 -12 -9 -22 -20z"/>
<path d="M6221 4955 c-1 -38 -4 -81 -7 -95 -6 -22 -5 -23 9 -10 13 12 14 29 8
95 l-8 80 -2 -70z"/>
<path d="M6135 4978 c-2 -7 -5 -50 -8 -96 -4 -79 -3 -82 15 -66 14 14 18 32
18 96 0 47 -4 78 -10 78 -6 0 -12 -6 -15 -12z"/>
<path d="M6039 4953 c-13 -3 -18 -22 -21 -91 -3 -48 -4 -88 -3 -90 1 -1 14 3
29 9 25 12 26 15 26 96 0 45 -3 82 -7 82 -5 -1 -15 -3 -24 -6z"/>
<path d="M2670 4846 c0 -41 -3 -81 -6 -89 -4 -11 7 -15 53 -19 37 -3 61 -1 66
6 4 6 6 42 5 80 l-3 69 -45 13 c-71 21 -70 22 -70 -60z"/>
<path d="M5898 4908 c-27 -9 -28 -13 -28 -76 0 -37 -3 -77 -6 -90 l-7 -23 49
19 49 20 3 81 c3 89 1 92 -60 69z"/>
<path d="M5734 4867 l-82 -19 -4 -86 c-3 -48 -5 -88 -4 -89 2 -2 169 47 173
51 2 2 3 39 1 82 l-3 79 -81 -18z"/>
<path d="M2840 4828 c0 -29 -3 -70 -6 -90 l-7 -38 52 0 51 0 0 79 c0 78 0 79
-27 85 -16 4 -36 9 -45 12 -16 5 -18 -2 -18 -48z"/>
<path d="M2980 4776 c0 -41 -3 -81 -6 -90 -5 -13 2 -16 40 -16 l46 0 0 80 c0
56 -4 82 -12 84 -7 3 -25 7 -40 10 l-28 6 0 -74z"/>
<path d="M5485 4819 c-124 -22 -390 -56 -549 -69 -65 -5 -120 -11 -122 -12 -5
-6 -25 -180 -20 -185 2 -2 62 5 132 16 71 11 192 27 269 36 129 15 346 49 388
61 14 5 17 18 17 90 0 46 -3 83 -7 83 -5 -1 -53 -10 -108 -20z"/>
<path d="M3116 4745 c-4 -42 -9 -82 -12 -90 -4 -10 4 -13 38 -10 l43 3 3 80
c3 76 2 80 -20 86 -43 11 -45 8 -52 -69z"/>
<path d="M6210 4793 c-138 -64 -386 -139 -607 -183 l-62 -12 6 -47 c13 -115
-99 -202 -355 -275 -515 -147 -1355 -138 -1831 20 -138 46 -213 87 -267 147
-41 46 -44 53 -44 107 l0 58 -42 7 c-151 23 -421 104 -623 185 -27 11 -35 9
-89 -23 -72 -43 -149 -115 -172 -159 -36 -68 -12 -159 58 -224 198 -185 691
-335 1318 -403 333 -36 534 -44 936 -38 476 7 774 34 1099 98 585 117 910 264
970 440 25 74 -4 149 -89 227 -44 41 -134 103 -145 101 -4 0 -31 -12 -61 -26z"/>
<path d="M3238 4713 c-3 -49 -4 -89 -4 -90 1 -1 19 0 39 4 l37 6 0 77 c0 81
-5 90 -50 90 -15 0 -18 -12 -22 -87z"/>
<path d="M3370 4738 c-1 -24 -5 -63 -10 -88 -4 -25 -8 -45 -7 -46 1 -1 19 1
40 4 l37 4 0 84 0 84 -30 0 c-29 0 -30 -2 -30 -42z"/>
<path d="M3490 4718 c0 -29 -3 -70 -6 -90 l-7 -38 42 0 41 0 0 84 c0 78 -1 84
-22 90 -45 11 -48 8 -48 -46z"/>
<path d="M3610 4697 c0 -35 -3 -78 -6 -94 -6 -28 -5 -29 35 -25 l41 4 0 84 c0
60 -4 84 -12 84 -7 0 -23 3 -35 6 -22 6 -23 4 -23 -59z"/>
<path d="M3735 4738 c-2 -7 -5 -50 -8 -96 -3 -69 -1 -82 10 -77 8 3 28 5 44 5
l29 0 0 84 c0 78 -1 84 -22 90 -35 9 -48 7 -53 -6z"/>
<path d="M3860 4678 c0 -35 -4 -78 -10 -96 -8 -29 -7 -33 6 -28 9 3 29 6 45 6
l30 0 -3 88 -3 87 -32 3 -33 3 0 -63z"/>
<path d="M4679 4733 l-36 -4 -6 -77 c-3 -42 -8 -85 -12 -94 -6 -14 -2 -15 27
-8 18 5 50 12 71 15 l37 6 0 84 c0 95 8 87 -81 78z"/>
<path d="M3987 4655 c-4 -42 -12 -85 -18 -97 -10 -18 -9 -20 7 -14 11 4 34 10
52 13 l32 6 0 83 0 84 -34 0 -33 0 -6 -75z"/>
<path d="M4110 4667 c0 -34 -4 -77 -9 -95 l-10 -33 37 7 c20 4 40 9 45 11 4 2
7 42 7 89 l0 84 -35 0 -35 0 0 -63z"/>
<path d="M4240 4678 c0 -29 -5 -71 -10 -93 -5 -22 -8 -40 -7 -42 1 -1 21 1 45
4 l42 6 0 88 0 89 -35 0 -35 0 0 -52z"/>
<path d="M4367 4723 c-4 -3 -7 -40 -7 -80 0 -41 -5 -83 -10 -94 -10 -17 -8
-18 15 -9 15 6 37 10 51 10 24 0 24 1 24 90 l0 90 -33 0 c-19 0 -37 -3 -40 -7z"/>
<path d="M4500 4678 c0 -29 -5 -70 -11 -91 -6 -22 -9 -40 -7 -42 2 -2 24 2 51
8 l47 10 0 84 0 83 -40 0 -40 0 0 -52z"/>
<path d="M5447 4583 c-14 -14 -7 -100 9 -114 14 -11 19 -10 35 10 29 36 34 69
14 91 -18 20 -46 26 -58 13z"/>
<path d="M5305 4561 l-30 -6 45 -18 c59 -22 60 -22 60 8 0 27 -13 30 -75 16z"/>
<path d="M3395 4516 c-86 -27 -195 -76 -195 -87 0 -10 99 -55 190 -86 l75 -25
187 13 c104 7 192 15 197 18 5 3 6 41 3 83 l-5 77 -76 6 c-42 3 -117 10 -168
15 -119 13 -125 12 -208 -14z"/>
<path d="M5020 4529 c-108 -13 -400 -29 -534 -29 l-125 0 -3 -62 c-3 -54 -6
-63 -23 -66 -11 -2 -16 0 -10 5 13 10 7 123 -6 123 -5 0 -9 -22 -9 -50 0 -27
-4 -50 -10 -50 -5 0 -10 23 -10 50 l0 50 -170 2 c-93 0 -176 1 -182 2 -9 1
-14 -22 -16 -76 l-3 -78 43 0 c33 0 51 7 77 30 39 35 55 34 59 -1 l3 -24 194
0 195 0 5 25 c7 34 49 78 81 86 14 4 44 1 65 -5 39 -12 54 -31 73 -93 3 -10
15 -19 28 -22 36 -7 349 -30 383 -28 57 3 246 72 305 111 19 13 -60 50 -184
85 -92 27 -118 29 -226 15z"/>
<path d="M3880 4469 c0 -24 -3 -61 -6 -81 -5 -31 -4 -38 10 -38 14 0 15 10 9
78 -7 87 -13 107 -13 41z"/>
<path d="M4546 4415 c-29 -32 -40 -65 -20 -65 8 0 14 8 14 18 0 32 29 62 60
62 29 0 70 -39 70 -66 0 -8 5 -14 11 -14 6 0 8 7 5 16 -3 9 -6 20 -6 25 0 5
-9 18 -20 29 -29 29 -85 27 -114 -5z"/>
<path d="M2085 4356 c-6 -36 -2 -55 15 -91 44 -92 211 -206 416 -285 43 -16
84 -30 91 -30 9 0 13 22 13 78 l0 78 -57 18 c-162 52 -347 152 -427 232 l-45
44 -6 -44z"/>
<path d="M4565 4378 c-15 -23 -15 -23 26 -26 48 -4 53 -1 44 27 -9 28 -49 27
-70 -1z"/>
<path d="M4133 4293 c-29 -4 -33 -8 -33 -34 l0 -29 193 2 192 3 3 26 c3 24 -1
27 -44 33 -49 6 -255 6 -311 -1z"/>
<path d="M3785 4281 l-80 -6 70 -12 c39 -7 112 -15 163 -19 l92 -7 0 26 c0 24
-1 25 -32 14 -24 -9 -32 -9 -35 1 -5 13 -31 13 -178 3z"/>
<path d="M4062 4265 c0 -16 2 -22 5 -12 2 9 2 23 0 30 -3 6 -5 -1 -5 -18z"/>
<path d="M4502 4263 c4 -39 28 -42 28 -4 0 21 -5 31 -16 31 -11 0 -14 -8 -12
-27z"/>
<path d="M4550 4265 c0 -23 3 -25 50 -25 47 0 50 2 50 25 0 23 -3 25 -50 25
-47 0 -50 -2 -50 -25z"/>
<path d="M4682 4265 c0 -16 2 -22 5 -12 2 9 2 23 0 30 -3 6 -5 -1 -5 -18z"/>
<path d="M4720 4264 c0 -14 9 -15 68 -9 102 11 110 24 15 25 -70 0 -83 -3 -83
-16z"/>
<path d="M6223 4110 c0 -47 2 -66 4 -42 2 23 2 61 0 85 -2 23 -4 4 -4 -43z"/>
<path d="M6143 4153 c-16 -6 -18 -163 -3 -163 17 0 21 23 18 97 -2 50 -6 69
-15 66z"/>
<path d="M6033 4112 c-9 -6 -25 -172 -16 -172 1 0 14 5 28 12 24 11 25 15 25
90 0 78 -6 90 -37 70z"/>
<path d="M2670 4026 c0 -36 -4 -76 -9 -89 -9 -24 -8 -25 44 -31 29 -3 60 -9
69 -12 14 -5 16 5 16 80 l0 85 -52 16 c-28 8 -55 15 -60 15 -4 0 -8 -29 -8
-64z"/>
<path d="M5910 4077 l-35 -12 -5 -88 c-3 -48 -4 -87 -4 -87 1 0 22 9 48 20
l46 21 0 79 c0 44 -3 80 -7 79 -5 0 -24 -5 -43 -12z"/>
<path d="M2838 3973 c-3 -43 -9 -86 -13 -95 -6 -16 -1 -18 49 -18 l56 0 0 84
c0 83 0 84 -27 89 -16 3 -35 8 -44 12 -14 5 -17 -5 -21 -72z"/>
<path d="M5729 4032 l-66 -16 -7 -70 c-4 -38 -9 -80 -13 -94 -5 -23 -4 -23 18
-11 13 7 51 20 84 29 l60 15 3 83 c2 45 -1 81 -5 81 -4 -1 -38 -9 -74 -17z"/>
<path d="M2980 3946 c0 -36 -4 -76 -10 -90 -9 -26 -9 -26 40 -26 l50 0 0 84
c0 90 -4 96 -56 96 -23 0 -24 -3 -24 -64z"/>
<path d="M5450 3979 c-127 -20 -417 -54 -552 -64 -58 -4 -88 -11 -88 -19 0 -6
-5 -49 -10 -95 -6 -46 -10 -85 -8 -86 2 -2 30 3 63 11 33 7 119 20 191 29 278
32 447 57 518 76 37 10 38 11 32 47 -3 20 -6 56 -6 80 0 27 -4 42 -12 41 -7
-1 -65 -9 -128 -20z"/>
<path d="M3117 3923 c-4 -37 -9 -78 -13 -90 -6 -22 -3 -23 40 -23 l46 0 0 85
c0 61 -3 85 -12 85 -7 0 -22 3 -34 6 -19 5 -21 0 -27 -63z"/>
<path d="M6195 3954 c-124 -58 -404 -141 -587 -174 l-68 -12 6 -39 c9 -54 -1
-83 -43 -130 -87 -97 -306 -179 -573 -214 -430 -58 -812 -60 -1170 -9 -58 9
-123 18 -145 20 -69 8 -261 62 -340 95 -94 39 -159 82 -199 132 -26 33 -31 47
-31 94 l0 56 -120 27 c-186 41 -337 86 -457 135 l-110 45 -51 -27 c-28 -16
-82 -57 -118 -93 -107 -104 -113 -179 -23 -279 149 -165 582 -317 1118 -391
78 -11 170 -24 206 -30 360 -56 1245 -56 1639 0 37 5 120 16 186 25 148 20
343 57 495 95 419 106 659 240 701 394 16 57 -12 128 -75 191 -50 50 -126 106
-156 117 -8 3 -46 -10 -85 -28z"/>
<path d="M3240 3911 c0 -32 -3 -73 -6 -90 -6 -31 -6 -31 35 -31 l41 0 0 84 c0
78 -1 84 -22 90 -45 12 -48 9 -48 -53z"/>
<path d="M3367 3876 c-4 -40 -9 -80 -13 -90 -5 -13 1 -16 35 -16 l41 0 0 90 0
90 -29 0 c-28 0 -28 -1 -34 -74z"/>
<path d="M3490 3884 c0 -33 -4 -75 -10 -93 -5 -19 -9 -36 -7 -37 1 -2 21 0 45
3 l42 6 0 83 c0 61 -4 84 -12 84 -7 0 -23 3 -35 6 -22 6 -23 4 -23 -52z"/>
<path d="M3610 3849 c0 -39 -5 -80 -11 -91 -10 -19 -9 -20 12 -15 13 4 34 7
47 7 21 0 22 4 22 85 l0 85 -35 0 -35 0 0 -71z"/>
<path d="M3735 3850 c-3 -36 -9 -78 -12 -94 -5 -26 -3 -28 18 -23 13 4 34 7
47 7 21 0 22 4 22 84 l0 84 -34 4 -35 4 -6 -66z"/>
<path d="M3860 3849 c0 -35 -4 -79 -10 -98 -9 -31 -8 -33 13 -27 12 3 32 6 45
6 21 0 22 4 22 85 0 77 -2 85 -19 85 -11 0 -26 3 -35 6 -14 5 -16 -4 -16 -57z"/>
<path d="M3990 3861 c0 -21 -5 -62 -10 -91 -6 -29 -9 -54 -7 -56 1 -1 21 3 45
9 l42 11 0 83 0 83 -35 0 c-34 0 -35 -1 -35 -39z"/>
<path d="M4110 3831 c0 -38 -5 -82 -10 -97 -10 -25 -9 -26 12 -20 13 3 33 6
46 6 21 0 22 4 22 84 0 88 -4 96 -51 96 -17 0 -19 -8 -19 -69z"/>
<path d="M4500 3842 c0 -31 -4 -73 -10 -91 -5 -19 -8 -36 -6 -38 2 -2 24 1 50
8 l46 11 0 84 0 84 -40 0 -40 0 0 -58z"/>
<path d="M4637 3823 c-3 -43 -9 -87 -13 -97 -6 -16 -4 -18 12 -11 10 4 43 10
72 13 l52 4 0 84 0 84 -59 0 -58 0 -6 -77z"/>
<path d="M4237 3818 c-3 -40 -8 -82 -12 -94 -6 -20 -5 -20 39 -10 l46 11 0 82
0 83 -34 0 -33 0 -6 -72z"/>
<path d="M4360 3814 c0 -41 -5 -84 -10 -95 -10 -17 -8 -18 15 -9 15 6 37 10
51 10 24 0 24 2 24 85 l0 85 -40 0 -40 0 0 -76z"/>
<path d="M5458 3753 c-26 -7 -26 -108 -1 -118 20 -7 50 23 59 62 6 22 -19 65
-35 62 -3 -1 -14 -3 -23 -6z"/>
<path d="M5310 3730 l-35 -7 28 -11 c79 -34 77 -34 77 -2 0 32 -4 33 -70 20z"/>
<path d="M3390 3681 c-90 -30 -177 -68 -185 -82 -14 -22 199 -99 370 -134 67
-14 127 -25 132 -25 8 0 6 169 -2 178 -2 2 -12 -2 -24 -10 -15 -9 -23 -10 -32
-1 -17 17 -3 58 23 70 23 10 13 12 -152 28 -32 3 -70 -4 -130 -24z"/>
<path d="M5054 3700 c-27 -4 -98 -11 -156 -15 l-106 -7 -6 -38 c-13 -84 -92
-130 -163 -96 -35 16 -63 64 -63 106 0 19 -5 21 -57 18 l-58 -3 -3 -132 -3
-133 50 0 c42 0 56 5 86 31 38 33 65 33 65 -1 0 -25 8 -25 165 -5 241 31 426
76 557 137 38 17 67 36 65 42 -5 18 -91 55 -190 81 -97 26 -103 27 -183 15z"/>
<path d="M3705 3664 c-22 -19 -24 -23 -7 -14 38 19 44 5 41 -108 -2 -76 1
-107 9 -110 10 -3 12 27 10 124 -2 74 -7 129 -13 130 -5 2 -23 -8 -40 -22z"/>
<path d="M3780 3554 l0 -121 30 -7 c17 -3 67 -8 113 -11 45 -4 92 -8 104 -11
21 -4 21 -3 7 23 -15 30 -20 140 -5 113 5 -8 11 -31 15 -51 4 -21 16 -49 27
-64 18 -22 28 -26 62 -23 34 2 45 9 64 36 27 41 38 125 24 180 -7 23 -14 42
-16 42 -2 0 -1 -30 2 -67 6 -73 -8 -142 -33 -168 -24 -23 -71 -19 -89 8 -20
32 -29 82 -17 102 8 15 11 11 17 -21 10 -56 22 -74 51 -74 32 0 44 31 44 113
0 78 -7 105 -30 112 -30 10 -47 -5 -60 -52 -10 -35 -15 -41 -22 -29 -5 9 -5
30 1 51 12 44 -2 46 -19 3 -26 -71 -31 -74 -26 -20 l5 52 -52 1 c-29 0 -85 2
-124 3 l-73 1 0 -121z"/>
<path d="M4673 3672 c-46 -3 -48 -7 -33 -46 14 -37 57 -36 71 1 15 40 8 48
-38 45z"/>
<path d="M4741 3635 c-12 -47 -33 -65 -75 -65 -28 0 -49 26 -60 73 -4 15 -11
27 -17 27 -6 0 -8 -7 -5 -16 3 -9 6 -22 6 -30 0 -8 11 -26 25 -39 32 -33 84
-34 112 -2 22 23 47 97 33 97 -4 0 -13 -20 -19 -45z"/>
<path d="M4245 3563 c0 -72 -4 -107 -17 -130 l-16 -33 79 0 79 0 0 80 c0 77
-1 80 -19 70 -31 -16 -41 -12 -41 19 0 22 9 35 40 56 22 15 40 29 40 31 0 2
-33 4 -72 4 l-73 0 0 -97z"/>
<path d="M4383 3616 c-24 -21 -25 -24 -8 -23 19 2 20 -5 23 -95 4 -141 22
-123 22 22 0 66 -2 120 -4 120 -3 0 -18 -11 -33 -24z"/>
<path d="M2086 3538 c-11 -53 -7 -73 23 -120 61 -97 251 -218 440 -283 l72
-24 -3 80 -3 81 -100 38 c-181 68 -338 158 -398 229 l-25 30 -6 -31z"/>
<path d="M6224 3275 c0 -49 1 -71 3 -48 2 23 2 64 0 90 -2 26 -3 8 -3 -42z"/>
<path d="M6143 3323 c-9 -3 -13 -31 -13 -91 0 -78 2 -85 15 -71 20 20 18 168
-2 162z"/>
<path d="M6034 3282 c-7 -4 -13 -43 -15 -93 l-4 -85 27 15 c27 15 28 19 28 94
0 77 -6 89 -36 69z"/>
<path d="M5915 3246 l-40 -12 -5 -87 c-3 -48 -4 -87 -4 -87 1 0 22 9 48 20
l46 21 0 79 c0 44 -1 80 -2 79 -2 0 -21 -6 -43 -13z"/>
<path d="M2680 3208 c0 -24 -5 -61 -10 -83 -5 -22 -8 -40 -7 -41 1 -1 28 -4
60 -8 l57 -6 0 79 0 79 -44 11 c-25 6 -47 11 -50 11 -3 0 -6 -19 -6 -42z"/>
<path d="M5735 3201 l-70 -18 -7 -54 c-3 -30 -9 -71 -12 -92 l-6 -38 27 14
c16 8 54 20 86 27 l57 13 0 84 c0 45 -1 82 -2 82 -2 -1 -34 -9 -73 -18z"/>
<path d="M2840 3146 c0 -36 -4 -75 -9 -88 -9 -23 -7 -24 45 -24 l54 -1 0 78 0
78 -37 10 c-21 6 -41 11 -45 11 -5 0 -8 -29 -8 -64z"/>
<path d="M2988 3108 c-3 -40 -9 -80 -12 -89 -6 -13 1 -16 39 -15 l45 1 0 83
c0 74 -2 82 -19 82 -11 0 -26 2 -34 6 -11 4 -15 -10 -19 -68z"/>
<path d="M5540 3160 c-83 -20 -331 -51 -522 -67 l-206 -16 -6 -56 c-4 -31 -9
-76 -13 -100 -5 -39 -4 -43 13 -38 33 10 194 36 324 52 69 9 200 28 293 42
l167 26 0 83 c0 46 -3 84 -7 83 -5 -1 -24 -5 -43 -9z"/>
<path d="M3120 3091 c0 -33 -4 -71 -10 -85 -9 -25 -8 -26 31 -26 l40 0 -3 83
c-3 81 -3 82 -30 85 -28 3 -28 3 -28 -57z"/>
<path d="M3240 3061 c0 -38 -3 -76 -6 -85 -5 -13 2 -16 35 -16 l42 0 -3 83 -3
82 -32 3 -33 3 0 -70z"/>
<path d="M3370 3054 c0 -35 -5 -75 -10 -90 -10 -26 -10 -26 21 -20 17 3 35 6
40 6 5 0 9 35 9 79 l0 79 -30 4 -30 5 0 -63z"/>
<path d="M3490 3050 c0 -30 -4 -71 -10 -89 -5 -19 -8 -36 -6 -38 2 -2 22 -1
45 3 l41 7 0 82 0 83 -35 4 -35 4 0 -56z"/>
<path d="M3608 3013 c-2 -43 -7 -85 -12 -94 -6 -15 -2 -15 38 -6 l46 10 0 84
0 83 -34 0 -34 0 -4 -77z"/>
<path d="M3730 3005 c0 -42 -4 -84 -10 -94 -8 -17 -5 -17 41 -8 l50 10 -3 81
-3 81 -37 3 -38 3 0 -76z"/>
<path d="M3860 3006 c0 -36 -5 -77 -10 -92 -10 -26 -10 -26 21 -20 17 3 38 6
45 6 11 0 14 20 14 85 l0 85 -35 0 -35 0 0 -64z"/>
<path d="M3986 2990 c-3 -44 -9 -87 -13 -96 -5 -14 -3 -16 11 -11 10 4 31 7
47 7 l29 0 0 90 0 90 -34 0 -33 0 -7 -80z"/>
<path d="M4539 3063 l-36 -4 -6 -72 c-3 -40 -9 -83 -13 -96 -6 -21 -5 -22 14
-12 11 6 34 11 51 11 l31 0 0 90 c0 50 -1 89 -2 88 -2 -1 -19 -3 -39 -5z"/>
<path d="M4637 2993 c-3 -43 -9 -87 -13 -97 -6 -16 -4 -18 12 -12 10 4 43 10
72 13 l52 6 0 83 0 84 -59 0 -58 0 -6 -77z"/>
<path d="M4108 2983 c-3 -43 -8 -86 -13 -97 -7 -16 -6 -17 13 -7 11 6 32 11
46 11 26 0 26 0 26 85 l0 85 -34 0 -34 0 -4 -77z"/>
<path d="M4237 2983 c-3 -43 -8 -85 -12 -94 -5 -14 0 -14 40 -5 l45 11 0 82 0
83 -34 0 -33 0 -6 -77z"/>
<path d="M4360 2984 c0 -41 -5 -85 -11 -96 -10 -18 -9 -20 7 -14 11 4 34 10
52 13 l32 6 0 83 0 84 -40 0 -40 0 0 -76z"/>
</g>
</svg>
